#!OML:ASF I:\Actors\actors\Patient Classification 1\Patient 1\Session 1\Subject1.ASF
:FULLY-SPECIFIED
:DEGREES
1242
root -0.0509441 17.709 8.23389 12.8434 11.5546 -7.45745
lowerback 7.68321 4.16672 10.9177
upperback 0.405797 6.70319 5.32734
thorax -3.29149 3.19256 -1.15794
lowerneck 6.55721 -15.1519 -6.98519
upperneck 5.01496 -21.8317 24.6111
head 3.99066 -10.758 7.87461
rclavicle 1.98785e-015 -1.27222e-014
rhumerus 71.3921 1.24932 -100.485
rradius 44.5378
rwrist -47.5391
rhand 24.9744 337.912
rfingers 7.12502
rthumb 49.1376 -403.752
lclavicle 1.98785e-015 -1.27222e-014
lhumerus -30.036 -63.8265 106.387
lradius 75.1493
lwrist 3.94924
lhand -9.73485 -7.25653
lfingers 7.12502
lthumb 16.239 22.0834
rfemur -12.9193 12.8869 22.9515
rtibia 11.1666
rfoot -16.9517 -27.1994
rtoes 6.02384
lfemur -12.8297 -33.0947 -2.07924
ltibia 0.500873
lfoot -4.89236 34.5391
ltoes -11.046
1243
root -0.0468586 17.704 8.2845 12.3562 11.8127 -7.41434
lowerback 7.28955 4.27946 10.9613
upperback -0.125119 6.85356 5.21326
thorax -3.60028 3.23777 -1.30095
lowerneck 6.516 -15.1663 -6.89011
upperneck 4.25205 -21.7255 24.8559
head 3.77209 -10.752 7.95851
rclavicle 2.54444e-014 1.90833e-014
rhumerus 72.3689 1.59136 -99.3409
rradius 46.4082
rwrist -48.1753
rhand 26.6615 338.265
rfingers 7.12502
rthumb 50.6821 -402.592
lclavicle 2.54444e-014 1.90833e-014
lhumerus -31.1073 -64.0379 107.167
lradius 75.2414
lwrist 4.07458
lhand -8.36083 -7.4001
lfingers 7.12502
lthumb 17.5616 21.8267
rfemur -12.3953 12.2749 23.1354
rtibia 11.6441
rfoot -17.2115 -26.9776
rtoes 5.09959
lfemur -12.0628 -32.8531 -2.62116
ltibia 0.517854
lfoot -4.968 33.9166
ltoes -11.7739
1244
root -0.0445304 17.6982 8.33694 11.8473 12.0669 -7.46318
lowerback 7.01678 4.4429 11.2123
upperback -0.741554 7.10911 4.96498
thorax -4.0162 3.31916 -1.71394
lowerneck 6.36952 -15.3787 -6.47936
upperneck 3.58219 -21.8679 24.8907
head 3.58189 -10.8501 7.89688
rclavicle 4.57205e-014 2.70347e-014
rhumerus 73.4077 1.54417 -98.4095
rradius 47.8306
rwrist -49.0999
rhand 28.1068 338.547
rfingers 7.12502
rthumb 51.9971 -401.561
lclavicle 4.57205e-014 2.70347e-014
lhumerus -32.44 -64.61 108.078
lradius 75.2031
lwrist 3.94017
lhand -7.04795 -7.53678
lfingers 7.12502
lthumb 18.8247 21.5723
rfemur -11.8446 11.7436 23.4093
rtibia 12.0729
rfoot -17.5327 -26.805
rtoes 4.54155
lfemur -11.288 -32.5305 -3.03684
ltibia 0.522725
lfoot -5.00492 33.2449
ltoes -12.6516
1245
root -0.0409018 17.692 8.39082 11.3596 12.3114 -7.41944
lowerback 6.73814 4.60599 11.2905
upperback -1.38813 7.35142 4.70334
thorax -4.4784 3.39229 -2.04884
lowerneck 6.51267 -15.36 -6.26678
upperneck 2.79298 -21.7072 25.4093
head 3.33719 -10.8291 8.07791
rclavicle -8.18993e-014 -8.5875e-014
rhumerus 74.3286 1.39849 -97.3406
rradius 49.1239
rwrist -49.9954
rhand 28.9632 338.9
rfingers 7.12502
rthumb 52.7724 -400.735
lclavicle -8.18993e-014 -8.5875e-014
lhumerus -33.8935 -65.1792 109.099
lradius 75.0822
lwrist 3.49221
lhand -5.5889 -7.74133
lfingers 7.12502
lthumb 20.2275 21.2255
rfemur -11.2734 11.1952 23.5487
rtibia 12.4598
rfoot -17.9195 -26.5765
rtoes 4.26653
lfemur -10.5386 -32.3183 -3.55713
ltibia 0.586801
lfoot -5.06994 32.6431
ltoes -13.433
1246
root -0.0361887 17.6852 8.44728 10.9035 12.552 -7.29577
lowerback 6.34725 4.76307 11.1577
upperback -1.99637 7.5485 4.48624
thorax -4.87068 3.45423 -2.20968
lowerneck 6.54274 -15.3385 -6.18807
upperneck 2.08071 -21.5601 25.8079
head 3.13762 -10.8058 8.22568
rclavicle 2.44505e-014 -5.40694e-014
rhumerus 75.1808 1.35923 -96.3996
rradius 50.3316
rwrist -50.2205
rhand 29.6756 339.244
rfingers 7.12502
rthumb 53.4151 -399.982
lclavicle 2.44505e-014 -5.40694e-014
lhumerus -35.0763 -65.7285 109.987
lradius 74.8615
lwrist 2.81346
lhand -4.04788 -8.00274
lfingers 7.12502
lthumb 21.708 20.8001
rfemur -10.6829 10.6018 23.5818
rtibia 12.811
rfoot -18.3101 -26.284
rtoes 3.7193
lfemur -9.75612 -32.3442 -4.16277
ltibia 0.606443
lfoot -5.29464 32.2487
ltoes -13.7076
1247
root -0.0344772 17.677 8.5067 10.4186 12.7682 -7.31796
lowerback 5.73306 4.96189 11.1127
upperback -2.47156 7.75918 4.29582
thorax -4.98465 3.53967 -2.35843
lowerneck 6.67347 -15.3155 -6.09418
upperneck 1.00827 -21.3292 26.3043
head 2.81225 -10.7784 8.42983
rclavicle 2.08724e-014 3.18055e-015
rhumerus 76.0575 1.29786 -95.7369
rradius 51.4978
rwrist -50.0772
rhand 30.5464 339.634
rfingers 7.12502
rthumb 54.1975 -399.069
lclavicle 2.08724e-014 3.18055e-015
lhumerus -35.6696 -66.5277 110.44
lradius 74.551
lwrist 1.97775
lhand -2.50019 -8.3248
lfingers 7.12502
lthumb 23.1936 20.2987
rfemur -10.0768 10.1765 23.786
rtibia 13.1428
rfoot -18.7281 -26.0359
rtoes 3.37653
lfemur -8.87272 -32.2753 -4.59169
ltibia 0.464816
lfoot -5.38362 31.8187
ltoes -14.2403
1248
root -0.035223 17.6674 8.56654 9.91567 13.0244 -7.42052
lowerback 4.96913 5.11541 11.0579
upperback -2.84717 7.87933 4.18155
thorax -4.92815 3.59482 -2.39392
lowerneck 6.74223 -15.3105 -6.08576
upperneck -0.0911063 -21.1226 26.8404
head 2.50948 -10.7641 8.65176
rclavicle -1.53064e-014 -8.11041e-014
rhumerus 76.8529 1.2749 -95.1807
rradius 52.5146
rwrist -50.1338
rhand 31.6629 340.099
rfingers 7.12502
rthumb 55.1954 -397.897
lclavicle -1.53064e-014 -8.11041e-014
lhumerus -35.8056 -67.2175 110.515
lradius 74.2712
lwrist 1.06064
lhand -0.630144 -8.74503
lfingers 7.12502
lthumb 24.9867 19.6411
rfemur -9.45496 9.88249 24.0927
rtibia 13.4381
rfoot -19.131 -25.9337
rtoes 3.37908
lfemur -8.00938 -32.1719 -4.89851
ltibia 0.317784
lfoot -5.46849 31.3689
ltoes -14.8348
1249
root -0.0357765 17.6575 8.62564 9.43962 13.3781 -7.48029
lowerback 4.29469 5.18564 10.9706
upperback -3.28349 7.90653 4.03923
thorax -4.99795 3.59619 -2.44794
lowerneck 6.70308 -15.3522 -6.12809
upperneck -0.926377 -21.0411 27.3611
head 2.3286 -10.7843 8.84716
rclavicle 2.67365e-014 4.45278e-014
rhumerus 77.6165 1.2192 -94.6054
rradius 53.3263
rwrist -50.4822
rhand 32.8201 340.217
rfingers 7.12502
rthumb 56.2229 -396.999
lclavicle 2.67365e-014 4.45278e-014
lhumerus -36.0664 -67.7146 110.623
lradius 74.0795
lwrist 0.0368655
lhand 1.54412 -9.20071
lfingers 7.12502
lthumb 27.0685 18.879
rfemur -8.81781 9.57802 24.3649
rtibia 13.6862
rfoot -19.5506 -25.985
rtoes 3.27021
lfemur -7.32551 -32.0338 -5.20347
ltibia 0.363357
lfoot -5.72653 30.8139
ltoes -15.1592
1250
root -0.0373277 17.6481 8.68607 8.98078 13.8004 -7.4849
lowerback 3.7829 5.19663 10.8633
upperback -3.83315 7.88602 3.79744
thorax -5.27571 3.55804 -2.61559
lowerneck 6.75549 -15.3724 -6.15114
upperneck -1.67741 -20.9393 27.8754
head 2.1506 -10.7955 9.04909
rclavicle 4.04527e-014 4.29375e-014
rhumerus 78.311 1.02407 -93.8509
rradius 54.2038
rwrist -50.8935
rhand 33.258 339.801
rfingers 7.12502
rthumb 56.6098 -397.106
lclavicle 4.04527e-014 4.29375e-014
lhumerus -36.8582 -68.1359 111.067
lradius 73.9558
lwrist -1.25996
lhand 3.42232 -9.74261
lfingers 7.12502
lthumb 28.864 18.0444
rfemur -8.13597 9.3274 24.5971
rtibia 13.8624
rfoot -20.0307 -26.1618
rtoes 3.23239
lfemur -6.72527 -31.8878 -5.5411
ltibia 0.488215
lfoot -5.93102 30.1759
ltoes -15.7455
